<?xml version="1.0" encoding="utf-8"?>
<!-- Generator: Adobe Illustrator 22.1.0, SVG Export Plug-In . SVG Version: 6.00 Build 0)  -->
<svg version="1.1" id="Laag_1" xmlns="http://www.w3.org/2000/svg" xmlns:xlink="http://www.w3.org/1999/xlink" x="0px" y="0px"
	 viewBox="0 0 55.2 153.9" style="enable-background:new 0 0 55.2 153.9;" xml:space="preserve">
<style type="text/css">
	.st0{fill:#FFFFFF;}
</style>
<title>Middel 1</title>
<g id="Laag_2_1_">
	<g id="Laag_1-2">
		<g id="_Groep_">
			<path class="st0" d="M55.2,0v153.9H28.3c0-15.7-12.7-28.3-28.3-28.4v-4.1c0.2,0,0.4,0.1,0.6,0.1c0.7,0,1.3-0.3,1.8-0.7
				c0.5-0.5,0.7-1.1,0.7-1.8c0-0.7-0.3-1.3-0.7-1.8c-0.5-0.5-1.1-0.7-1.8-0.7c-0.2,0-0.4,0-0.6,0.1v-5.7c0.2,0,0.4,0.1,0.6,0.1
				c0.7,0,1.3-0.3,1.8-0.7c1-1,1-2.6,0-3.5c-0.5-0.5-1.1-0.7-1.8-0.7c-0.2,0-0.4,0-0.6,0.1v-5.6c0.2,0,0.4,0.1,0.6,0.1
				c0.7,0,1.3-0.3,1.8-0.7c0.5-0.5,0.7-1.1,0.7-1.8c0-0.7-0.3-1.3-0.7-1.8c-0.5-0.5-1.1-0.7-1.8-0.7c-0.2,0-0.4,0-0.6,0.1v-5.7
				C0.2,90,0.4,90,0.6,90c0.7,0,1.3-0.3,1.8-0.7c1-1,1-2.6,0-3.5C1.9,85.3,1.2,85,0.6,85c-0.2,0-0.4,0-0.6,0v-5.6
				c0.2,0,0.4,0.1,0.6,0.1c0.7,0,1.3-0.3,1.8-0.7C2.8,78.3,3,77.6,3.1,77c0-0.7-0.3-1.3-0.7-1.8c-0.5-0.5-1.1-0.7-1.8-0.7
				c-0.2,0-0.4,0-0.6,0.1v-5.7c0.2,0,0.4,0.1,0.6,0.1c0.7,0,1.3-0.3,1.8-0.7c1-1,1-2.6,0-3.5c-0.5-0.5-1.1-0.7-1.8-0.7
				c-0.2,0-0.4,0-0.6,0.1v-5.7c0.2,0,0.4,0.1,0.6,0.1c0.7,0,1.3-0.3,1.8-0.7c1-1,1-2.6,0-3.5c-0.5-0.5-1.1-0.7-1.8-0.7
				c-0.2,0-0.4,0-0.6,0.1v-5.6c0.2,0,0.4,0.1,0.6,0.1c0.7,0,1.3-0.3,1.8-0.7c1-1,1-2.6,0-3.5c-0.5-0.5-1.1-0.7-1.8-0.7
				c-0.2,0-0.4,0-0.6,0.1v-5.7c0.2,0,0.4,0.1,0.6,0.1c0.7,0,1.3-0.3,1.8-0.7c1-1,1-2.6,0-3.5c-0.5-0.5-1.1-0.7-1.8-0.7
				c-0.2,0-0.4,0-0.6,0.1v-4.1c15.7,0,28.3-12.7,28.3-28.3c0,0,0,0,0,0H55.2z"/>
		</g>
	</g>
</g>
</svg>
